<?xml version="1.0" standalone="no"?>
<!DOCTYPE svg PUBLIC "-//W3C//DTD SVG 20010904//EN"
 "http://www.w3.org/TR/2001/REC-SVG-20010904/DTD/svg10.dtd">
<svg version="1.0" xmlns="http://www.w3.org/2000/svg"
 width="300.000000pt" height="300.000000pt" viewBox="0 0 300.000000 300.000000"
 preserveAspectRatio="xMidYMid meet">
<metadata>
Created by potrace 1.14, written by Peter Selinger 2001-2017
</metadata>
<g transform="translate(0.000000,300.000000) scale(0.100000,-0.100000)"
fill="#000000" stroke="none">
<path d="M73 2693 c-44 -3 -73 -8 -73 -15 0 -7 21 -8 68 -3 37 4 103 10 147
14 l80 8 -75 -1 c-41 0 -108 -2 -147 -3z"/>
<path d="M318 2693 c7 -3 16 -2 19 1 4 3 -2 6 -13 5 -11 0 -14 -3 -6 -6z"/>
<path d="M370 2599 c-30 -5 -102 -9 -160 -8 -211 2 -210 2 -210 -24 0 -23 1
-23 130 -21 72 1 133 -2 136 -7 3 -5 14 -9 25 -9 29 0 38 -37 38 -145 -1 -53
1 -99 4 -101 3 -3 11 9 18 25 8 17 17 31 21 31 3 0 8 24 10 54 1 30 0 52 -4
49 -14 -8 -8 15 7 31 8 8 13 21 10 29 -3 7 0 14 7 15 7 1 38 6 68 12 30 5 99
9 154 9 84 -1 101 2 117 18 19 19 19 19 -18 21 -21 1 -64 7 -95 13 -31 5 -74
9 -95 8 -21 -2 -54 0 -73 3 -19 3 -60 2 -90 -3z"/>
<path d="M2840 2588 c-69 -5 -129 -14 -134 -18 -12 -12 268 -10 286 1 10 7 10
9 -2 9 -13 0 -13 1 0 10 12 8 11 9 -5 8 -11 0 -76 -5 -145 -10z"/>
<path d="M2484 2579 c-8 -13 92 -18 153 -8 34 6 63 12 63 13 0 6 -212 0 -216
-5z"/>
<path d="M337 2263 c-3 -5 -7 -55 -8 -112 -1 -57 -6 -120 -12 -142 -8 -33 -15
-40 -46 -48 -20 -5 -72 -10 -116 -11 -98 -2 -94 -2 -127 6 -22 5 -28 3 -28
-10 0 -9 6 -16 13 -16 8 0 8 -3 -2 -9 -9 -6 24 -10 89 -10 56 -1 105 -3 109
-5 3 -2 67 -1 141 4 111 7 136 11 147 26 20 28 16 34 -25 34 -54 0 -72 23 -74
96 l-1 59 -7 -45 c-5 -35 -7 -38 -9 -15 -1 17 -8 49 -16 72 -8 24 -14 61 -13
83 1 40 -5 59 -15 43z"/>
<path d="M542 1954 c-29 -20 -28 -31 3 -31 20 0 25 5 25 23 0 28 0 28 -28 8z"/>
<path d="M2798 1923 c7 -3 16 -2 19 1 4 3 -2 6 -13 5 -11 0 -14 -3 -6 -6z"/>
<path d="M2954 1915 c-18 -13 -17 -14 16 -15 23 0 31 3 21 9 -11 7 -11 9 0 14
11 4 10 6 -2 6 -8 1 -24 -6 -35 -14z"/>
<path d="M1124 1792 c3 -5 -7 -18 -23 -29 -15 -10 -50 -38 -78 -63 l-49 -45
46 -31 47 -30 -11 29 c-10 28 -8 32 37 73 27 24 57 44 67 44 15 0 16 -5 7 -38
-13 -50 -1 -118 18 -102 10 8 17 6 30 -6 16 -16 16 -16 13 2 -2 15 2 18 21 16
13 -1 32 5 42 14 16 14 18 14 29 -5 6 -12 16 -19 22 -15 6 4 8 -1 4 -15 -3
-11 -9 -30 -12 -41 -4 -16 -14 -20 -50 -20 -33 0 -47 5 -56 20 -7 11 -21 20
-31 20 -16 0 -16 -2 -2 -24 17 -26 67 -37 120 -27 36 8 65 57 65 113 0 36 -1
37 -34 31 -38 -6 -51 6 -33 31 21 29 68 28 101 -2 16 -15 27 -22 24 -17 -35
81 -38 84 -90 101 -63 19 -234 32 -224 16z m196 -52 c24 -16 -2 -26 -54 -22
-31 3 -46 9 -46 18 0 17 76 20 100 4z"/>
<path d="M1975 1786 c-63 -16 -115 -43 -115 -60 0 -7 -10 -25 -21 -40 -28 -35
-19 -43 11 -11 33 35 42 31 39 -17 -1 -24 1 -67 5 -95 8 -52 9 -53 39 -52 18
1 24 3 15 6 -9 2 -24 16 -33 30 -16 23 -16 26 2 41 23 22 100 23 113 2 14 -22
13 -25 -19 -59 l-29 -31 27 6 c42 10 81 73 81 134 0 28 -3 30 -35 30 -22 0
-35 5 -35 13 0 19 21 37 43 37 13 0 17 5 13 15 -9 25 23 12 76 -30 40 -32 49
-57 33 -88 -18 -36 -8 -33 40 9 l40 35 -40 35 c-22 20 -60 48 -85 62 -25 14
-46 30 -48 34 -5 11 -58 8 -117 -6z m53 -53 c-3 -18 -61 -36 -86 -28 -30 11
20 43 66 44 17 1 23 -4 20 -16z"/>
<path d="M2110 1796 c0 -2 16 -6 35 -8 19 -2 35 0 35 4 0 4 -16 8 -35 8 -19 0
-35 -2 -35 -4z"/>
<path d="M1060 1775 c-14 -8 -19 -14 -10 -14 8 0 26 6 40 14 14 8 19 14 10 14
-8 0 -26 -6 -40 -14z"/>
<path d="M1825 1760 c4 -6 11 -8 16 -5 14 9 11 15 -7 15 -8 0 -12 -5 -9 -10z"/>
<path d="M285 1610 c-3 -5 -1 -10 4 -10 6 0 11 5 11 10 0 6 -2 10 -4 10 -3 0
-8 -4 -11 -10z"/>
<path d="M11 1534 c0 -11 3 -14 6 -6 3 7 2 16 -1 19 -3 4 -6 -2 -5 -13z"/>
<path d="M364 1527 c-3 -10 -4 -33 -1 -52 4 -26 2 -35 -9 -35 -8 0 -14 10 -15
23 -1 15 -4 12 -10 -13 -15 -56 -31 -83 -41 -68 -4 7 -8 23 -8 36 0 12 -4 22
-10 22 -5 0 -10 -4 -10 -10 0 -5 -18 -10 -40 -10 l-40 0 0 -40 c0 -33 4 -42
23 -49 20 -8 19 -9 -15 -16 -43 -8 -58 -1 -58 26 0 10 -7 19 -15 19 -9 0 -15
9 -15 24 0 19 -7 26 -31 31 -24 5 -28 9 -18 16 10 7 5 9 -16 7 -31 -3 -35 -12
-20 -57 5 -16 4 -21 -4 -17 -7 5 -11 -9 -11 -43 l0 -50 117 0 c109 1 174 -6
263 -28 l35 -9 -28 -7 c-15 -4 -25 -11 -22 -16 2 -5 -2 -12 -11 -15 -12 -4
-14 -1 -9 13 4 14 -1 23 -17 32 -16 9 -23 9 -26 0 -2 -6 -9 -8 -15 -4 -7 4
-74 9 -149 10 l-138 3 0 -59 c0 -38 4 -61 13 -64 9 -4 9 -6 0 -6 -9 -1 -13
-25 -13 -86 l0 -85 135 0 c74 0 135 -3 135 -7 0 -5 -55 -8 -123 -8 -67 0 -128
-2 -134 -4 -10 -2 -13 -59 -13 -237 l0 -234 50 0 c28 0 53 -1 57 -2 4 -2 23
20 43 49 19 29 41 52 48 53 10 0 12 8 8 27 -7 32 10 133 24 147 7 7 17 7 29
-1 16 -10 23 -3 61 63 51 90 91 184 83 199 -4 5 -2 6 2 2 5 -4 17 11 26 35 18
46 11 98 -19 131 -8 9 -11 17 -6 17 17 0 33 -16 43 -40 l10 -25 0 27 c1 15 5
30 11 33 6 3 10 15 10 26 0 11 -4 17 -10 14 -5 -3 -10 1 -10 9 0 8 -10 16 -22
18 -15 3 -7 7 24 12 41 7 46 11 50 37 5 35 -7 49 -44 49 -15 0 -28 5 -28 10 0
6 9 10 20 10 13 0 20 7 20 19 0 11 6 22 13 24 24 10 -35 48 -70 44 -30 -3 -32
-1 -31 28 1 17 -4 40 -10 51 -10 18 -11 18 -18 1z m-20 -356 c3 -4 -6 -6 -19
-3 -14 2 -25 6 -25 8 0 8 39 4 44 -5z m-64 -55 c0 -3 -4 -8 -10 -11 -5 -3 -10
-1 -10 4 0 6 5 11 10 11 6 0 10 -2 10 -4z m80 0 c0 -3 -4 -8 -10 -11 -5 -3
-10 -1 -10 4 0 6 5 11 10 11 6 0 10 -2 10 -4z m-181 -43 c2 -2 -5 -3 -17 -3
-14 0 -22 6 -22 16 0 14 3 15 18 3 9 -7 19 -15 21 -16z"/>
<path d="M2577 1305 c3 -22 6 -41 7 -41 4 -5 133 19 140 27 17 16 -4 23 -74
22 -55 0 -70 3 -74 16 -2 9 -2 -2 1 -24z"/>
<path d="M2950 1330 c-19 -5 -59 -10 -87 -11 -48 -2 -53 -5 -53 -25 0 -22 2
-23 95 -21 l95 1 0 33 c0 18 -3 33 -7 32 -5 -1 -24 -5 -43 -9z"/>
<path d="M2622 1225 c8 -19 14 -22 20 -13 4 7 8 18 8 23 0 6 -5 3 -10 -5 -8
-13 -10 -12 -10 3 0 9 -4 17 -10 17 -6 0 -5 -10 2 -25z"/>
<path d="M2590 1235 c0 -5 5 -17 10 -25 5 -8 10 -10 10 -5 0 6 -5 17 -10 25
-5 8 -10 11 -10 5z"/>
<path d="M2621 1124 c0 -11 3 -14 6 -6 3 7 2 16 -1 19 -3 4 -6 -2 -5 -13z"/>
<path d="M2663 1093 c-11 -16 -13 -16 -23 -3 -9 12 -11 12 -8 1 3 -8 8 -16 14
-18 14 -4 37 13 33 26 -3 7 -9 4 -16 -6z"/>
<path d="M2760 1082 c-14 -2 -28 -8 -31 -14 -4 -5 -23 -10 -43 -11 -33 -1 -37
-3 -32 -24 20 -79 49 -99 126 -88 34 5 50 2 65 -10 19 -16 19 -16 -10 -12 -16
3 -51 2 -77 -2 -39 -6 -48 -5 -48 7 0 9 -3 12 -7 9 -3 -4 0 -18 7 -32 10 -19
16 -22 23 -13 6 9 7 8 3 -5 -7 -21 134 -298 148 -290 5 4 6 1 1 -6 -12 -21 46
-131 70 -132 16 0 17 -2 4 -7 -14 -6 -12 -15 13 -67 l28 -60 0 332 0 332 -33
6 c-19 4 -40 6 -48 5 -28 -4 -39 0 -39 15 0 17 17 20 22 4 5 -15 38 0 38 18 0
11 -8 14 -30 11 -16 -3 -30 -1 -30 4 0 4 -7 8 -16 8 -8 0 -12 -4 -9 -10 3 -5
1 -10 -4 -10 -10 0 -16 22 -12 44 1 5 -5 4 -13 -4 -10 -8 -21 -9 -28 -3 -7 5
-24 7 -38 5z m-25 -43 c4 -6 5 -12 2 -15 -7 -7 -37 7 -37 17 0 13 27 11 35 -2z"/>
<path d="M1265 941 c0 -16 3 -27 7 -25 4 3 10 -12 14 -31 6 -35 7 -36 27 -18
11 10 17 13 14 7 -8 -14 8 -29 43 -39 14 -4 54 -25 90 -47 35 -21 70 -36 78
-33 7 2 11 1 7 -4 -5 -9 47 -41 66 -41 11 0 84 71 82 80 -1 4 5 7 14 6 10 0
20 9 24 24 4 15 8 -20 9 -85 l3 -110 8 90 c4 50 10 109 13 133 6 41 5 43 -17
36 -12 -3 -43 -17 -69 -30 -26 -13 -61 -24 -78 -24 -17 0 -94 30 -176 70 -81
39 -149 70 -153 70 -3 0 -6 -13 -6 -29z m174 -65 c20 -11 21 -14 7 -19 -11 -5
-15 -3 -10 5 5 8 -3 9 -27 5 -19 -3 -28 -3 -20 0 11 5 11 7 0 14 -23 15 23 10
50 -5z m41 -26 c-8 -5 -19 -10 -25 -10 -5 0 -3 5 5 10 8 5 20 10 25 10 6 0 3
-5 -5 -10z m107 -46 c-3 -3 -12 -4 -19 -1 -8 3 -5 6 6 6 11 1 17 -2 13 -5z
m33 -18 c0 -2 -9 -6 -20 -9 -11 -3 -18 -1 -14 4 5 9 34 13 34 5z m5 -26 c3 -6
-1 -7 -9 -4 -18 7 -21 14 -7 14 6 0 13 -4 16 -10z"/>
<path d="M2686 870 c3 -14 10 -29 15 -34 14 -16 10 6 -7 34 l-15 25 7 -25z"/>
<path d="M1145 870 c-11 -5 -59 -9 -106 -9 l-86 -1 -7 -142 c-4 -79 -11 -206
-16 -283 -6 -77 -8 -153 -5 -169 4 -19 0 -35 -12 -49 -22 -25 -18 -23 99 50
80 50 91 54 128 48 48 -8 47 -16 16 130 -24 113 -22 127 17 117 18 -5 19 -2
14 29 -3 19 -9 62 -13 96 -6 54 -4 65 16 90 16 21 50 87 50 97 0 6 -79 2 -95
-4z"/>
<path d="M1868 873 c-22 -5 -22 -10 -3 -93 22 -95 24 -98 38 -73 45 79 82 139
91 146 29 19 -69 35 -126 20z"/>
<path d="M1294 798 c0 -26 5 -43 10 -38 5 5 4 25 -2 47 l-10 38 2 -47z"/>
<path d="M2710 810 c0 -5 5 -10 11 -10 5 0 7 5 4 10 -3 6 -8 10 -11 10 -2 0
-4 -4 -4 -10z"/>
<path d="M2272 666 c-18 -53 -35 -122 -38 -153 -2 -32 -7 -68 -9 -80 -4 -17
-2 -21 10 -17 8 4 15 14 15 24 0 10 5 31 12 47 6 15 12 33 14 40 1 7 9 34 17
60 22 69 28 114 19 147 -7 25 -11 19 -40 -68z"/>
<path d="M2750 743 c0 -7 4 -15 10 -18 5 -3 19 -38 31 -77 19 -63 21 -77 10
-119 -12 -47 -8 -75 9 -64 11 7 40 -5 40 -17 0 -5 -9 -6 -20 -3 -11 3 -20 2
-20 -3 0 -21 34 -112 41 -112 5 0 6 -6 4 -13 -3 -7 5 -60 18 -117 22 -100 22
-106 6 -124 -17 -17 -18 -16 -29 25 -15 56 -38 128 -49 154 -5 11 -24 53 -42
93 -18 40 -35 71 -38 70 -3 -2 -42 -22 -86 -44 -44 -23 -118 -54 -165 -69 -47
-15 -107 -39 -134 -52 -26 -13 -54 -22 -62 -19 -9 3 -14 -2 -14 -14 0 -14 -5
-18 -16 -13 -30 11 30 -44 89 -81 32 -21 73 -57 90 -82 26 -37 36 -44 65 -44
19 0 31 4 27 10 -3 6 -2 10 4 10 5 0 12 -4 15 -9 3 -5 106 -8 228 -7 l223 1
-1 90 c-1 153 -48 313 -152 515 -64 125 -82 154 -82 133z m143 -290 c-7 -2
-19 -2 -25 0 -7 3 -2 5 12 5 14 0 19 -2 13 -5z m48 -200 c-10 -17 -10 -16 -11
3 0 23 13 41 18 25 2 -6 -1 -18 -7 -28z"/>
<path d="M560 730 c-8 -5 -11 -12 -7 -16 4 -4 13 -2 19 4 15 15 7 24 -12 12z"/>
<path d="M474 625 c-20 -31 -52 -32 -89 -3 l-28 21 12 -22 c19 -35 -2 -84 -45
-104 -19 -9 -41 -17 -49 -17 -7 0 -16 -4 -20 -9 -6 -10 58 5 87 20 11 6 26 5
42 -2 l25 -12 -28 -36 c-32 -42 -84 -150 -100 -208 -11 -40 -43 -74 -164 -175
-24 -20 -47 -47 -50 -58 -5 -21 -5 -21 241 -16 330 7 352 9 341 22 -5 6 -7 24
-4 40 9 61 14 224 5 219 -17 -11 -145 135 -184 212 -29 56 -28 63 20 131 9 12
14 22 10 22 -3 0 -13 -11 -22 -25z m-71 -76 c-8 -17 -17 -28 -19 -26 -7 7 18
67 26 62 5 -3 2 -19 -7 -36z"/>
<path d="M2390 610 c0 -5 5 -10 11 -10 5 0 7 5 4 10 -3 6 -8 10 -11 10 -2 0
-4 -4 -4 -10z"/>
<path d="M1685 529 c-23 -3 -30 -7 -16 -8 20 -1 22 -3 10 -17 -11 -14 -10 -19
7 -33 12 -9 26 -26 32 -38 11 -21 11 -21 -116 -21 -101 0 -135 -3 -161 -17
-18 -9 -35 -14 -38 -11 -7 6 -95 -49 -118 -74 -18 -20 -18 -21 1 -35 10 -8 23
-15 28 -15 6 0 1 6 -10 14 -25 19 -12 31 18 16 21 -10 21 -10 5 3 -17 14 -16
16 15 39 59 44 142 68 232 68 138 0 225 -23 309 -82 26 -19 27 -21 10 -34 -16
-13 -15 -14 12 -8 46 10 48 13 43 72 -5 57 -12 67 -95 133 -38 31 -125 55
-168 48z m101 -25 c87 -36 154 -105 154 -158 0 -24 -15 -20 -51 14 -18 16 -35
27 -39 25 -13 -8 -90 18 -90 30 0 7 -9 24 -21 39 -17 21 -18 26 -5 26 21 0 20
10 -1 26 -16 12 -16 13 -2 14 9 0 34 -7 55 -16z"/>
<path d="M2635 504 c-9 -21 -26 -49 -37 -61 -36 -38 4 -28 46 11 40 38 41 43
21 70 -13 17 -15 16 -30 -20z"/>
<path d="M0 373 c0 -38 4 -63 9 -57 4 5 27 35 50 67 l42 57 -51 0 -50 0 0 -67z"/>
<path d="M1210 416 c0 -8 4 -17 9 -20 5 -4 7 3 4 14 -6 23 -13 26 -13 6z"/>
<path d="M1795 243 c-34 -10 -101 -16 -205 -18 -179 -3 -190 -4 -183 -20 6
-17 -64 -25 -97 -12 -14 5 -68 17 -122 27 -72 12 -95 14 -91 4 2 -7 -15 -26
-39 -42 -91 -63 -85 -77 18 -42 41 14 71 19 100 14 41 -6 41 -6 36 24 -4 27
-2 29 22 25 22 -5 26 -11 26 -39 0 -21 5 -34 13 -34 30 0 209 -99 181 -100 -7
0 -15 -7 -18 -15 -5 -14 9 -16 105 -14 99 2 109 4 95 17 -13 14 -19 14 -41 2
-23 -12 -30 -12 -54 3 -16 9 -41 17 -55 17 -15 0 -29 7 -32 15 -4 8 -12 15
-19 15 -18 0 -58 37 -51 48 3 5 30 26 59 46 47 33 64 38 129 43 103 8 204 -17
253 -62 l36 -32 -76 -33 c-66 -29 -75 -36 -70 -54 5 -15 4 -17 -3 -7 -6 8 -18
11 -31 6 -44 -14 -18 -25 57 -25 74 0 76 1 48 15 -15 8 -35 15 -42 15 -8 0
-14 5 -14 10 0 6 4 10 10 10 5 0 40 14 76 31 37 16 92 36 123 44 31 7 48 14
37 14 -12 1 -16 6 -12 17 3 9 6 22 6 30 0 10 15 14 60 14 58 0 60 -1 81 -38
20 -34 75 -79 85 -69 2 2 -7 10 -21 17 -14 7 -25 16 -25 19 0 3 -11 19 -25 35
-14 16 -25 33 -25 39 0 9 -137 4 -230 -8 -46 -7 -100 7 -100 24 0 6 16 13 35
17 19 3 38 10 41 15 3 5 4 9 2 8 -2 0 -25 -8 -53 -16z m-487 -96 c12 -3 11 -5
-5 -6 -26 -1 -38 14 -27 37 6 15 8 14 11 -5 2 -12 12 -24 21 -26z m7 23 c3 -5
1 -10 -4 -10 -6 0 -11 5 -11 10 0 6 2 10 4 10 3 0 8 -4 11 -10z m615 -19 c0
-5 -7 -11 -15 -15 -15 -5 -20 5 -8 17 9 10 23 9 23 -2z"/>
<path d="M1360 236 c0 -2 7 -6 15 -10 8 -3 15 -1 15 4 0 6 -7 10 -15 10 -8 0
-15 -2 -15 -4z"/>
<path d="M28 187 c-25 -29 -28 -40 -28 -109 0 -64 3 -78 16 -78 11 0 14 6 9
21 -4 12 -3 19 1 16 5 -3 9 9 10 26 1 34 17 111 29 140 11 27 -7 19 -37 -16z"/>
<path d="M928 103 c7 -3 16 -2 19 1 4 3 -2 6 -13 5 -11 0 -14 -3 -6 -6z"/>
<path d="M2210 81 c0 -10 30 -24 37 -17 3 2 -5 9 -16 16 -12 6 -21 7 -21 1z"/>
<path d="M1100 60 c-9 -6 -10 -10 -3 -10 6 0 15 5 18 10 8 12 4 12 -15 0z"/>
<path d="M1168 63 c7 -3 16 -2 19 1 4 3 -2 6 -13 5 -11 0 -14 -3 -6 -6z"/>
<path d="M2075 40 c-15 -5 -9 -8 22 -11 23 -3 40 -1 37 2 -7 11 -39 16 -59 9z"/>
<path d="M1948 33 c17 -2 47 -2 65 0 17 2 3 4 -33 4 -36 0 -50 -2 -32 -4z"/>
<path d="M1008 23 c7 -3 16 -2 19 1 4 3 -2 6 -13 5 -11 0 -14 -3 -6 -6z"/>
<path d="M1844 15 c-24 -18 -7 -19 26 0 16 9 19 14 9 15 -8 0 -24 -7 -35 -15z"/>
<path d="M1368 13 c7 -3 16 -2 19 1 4 3 -2 6 -13 5 -11 0 -14 -3 -6 -6z"/>
<path d="M2155 10 c3 -5 11 -10 16 -10 6 0 7 5 4 10 -3 6 -11 10 -16 10 -6 0
-7 -4 -4 -10z"/>
</g>
</svg>
